<?xml version="1.0" encoding="UTF-8" standalone="no"?>
<!-- Generator: Adobe Illustrator 25.4.1, SVG Export Plug-In . SVG Version: 6.00 Build 0)  -->

<svg
   version="1.1"
   id="Layer_1"
   x="0px"
   y="0px"
   viewBox="0 0 2000 550"
   xml:space="preserve"
   width="2000"
   height="550"
   xmlns="http://www.w3.org/2000/svg"
   xmlns:svg="http://www.w3.org/2000/svg"><defs
   id="defs24" />
<style
   type="text/css"
   id="style2">
	.st0{ fill:#FFFFFF;}
</style>
<g
   id="g19"
   transform="translate(-1241.5042,-84.915832)">
	<g
   id="Layer_1_00000160184331791516637880000011209056013106879666_">
		<polygon
   class="st0"
   points="2526,529.9 2447,529.9 2549.5,377.7 2453.6,234.3 2532.6,234.3 2587.4,322.2 2642.9,234.3 2721.9,234.3 2626.1,377.7 2728.5,529.9 2649.5,529.9 2587.4,433.3 "
   id="polygon4" />
		<path
   class="st0"
   d="m 2770.6,175.2 c -8.3,-8.1 -12.9,-19.3 -12.5,-30.9 -0.2,-11.5 4.3,-22.5 12.5,-30.5 17.2,-16.7 44.6,-16.7 61.8,0 8.4,7.9 12.9,19 12.5,30.5 0.1,11.6 -4.4,22.7 -12.5,30.9 -8.1,8.3 -19.3,12.8 -30.9,12.5 -11.5,0.1 -22.7,-4.4 -30.9,-12.5 m -3.8,59.1 h 68.8 v 295.6 h -68.9 z"
   id="path6" />
		<path
   class="st0"
   d="m 2920.1,492.7 c -29.4,-29.2 -45.4,-69.3 -44.2,-110.7 -1.1,-41.4 14.9,-81.4 44.2,-110.6 28.5,-29.2 67.9,-45.3 108.7,-44.3 83.4,-0.9 151.7,66.1 152.6,149.5 0,1.8 0,3.6 0,5.4 0.9,41.1 -15.1,80.9 -44.2,110 -60.4,58.6 -156.3,58.9 -217.1,0.7 m 49.2,-177.1 c -15.6,17.2 -23.1,39.5 -23.1,66.5 -1,24.4 7.2,48.3 23.1,66.8 30.4,32.7 81.5,34.6 114.3,4.2 1.5,-1.4 2.9,-2.8 4.2,-4.2 15.6,-17.3 23.1,-39.6 23.1,-66.5 0.9,-24.3 -7.3,-48 -23.1,-66.5 -30.4,-32.7 -81.5,-34.6 -114.3,-4.2 -1.5,1.4 -2.9,2.8 -4.2,4.2"
   id="path8" />
		<path
   class="st0"
   d="m 1916.2,366.4 v 163.5 h -68.9 V 234.3 h 67.7 v 24 c 18.4,-20.7 44.2,-31.3 76.7,-31.3 36.8,0 65.3,11.3 86.1,34.5 20.7,23.1 31.3,55.1 31.3,96.6 v 172.3 h -68.6 V 358.2 c 0.9,-17.9 -4.5,-35.6 -15.2,-50 -10.6,-12.7 -26.5,-19.6 -43,-18.8 -18.5,-1.1 -36.5,6.6 -48.5,20.7 -11.3,13.7 -17.2,32.4 -17.2,56.3"
   id="path10" />
		<path
   class="st0"
   d="m 2421.6,402.8 h -202.2 c 0.5,19.9 9,38.8 23.5,52.4 14.9,13.2 34.4,20.1 54.4,19.2 31.7,0 57.1,-14.1 76.2,-42 l 46.6,43.4 c -28.5,38.8 -74.2,61.3 -122.4,60.2 -44.2,0 -80.1,-14.1 -107.5,-42.6 -27.4,-28.5 -41.1,-64.9 -41.1,-110.3 0,-44.2 12.5,-81.3 37.5,-111.8 25,-30.5 58.7,-45.4 100.5,-45.4 21.2,-0.3 42.2,4.2 61.4,13.1 17,7.8 31.7,20 42.6,35.2 10.5,14.7 18.5,31.1 23.5,48.5 5.2,17.9 7.8,36.5 7.8,55.1 z m -134.2,-113 c -16.1,-0.7 -31.8,5.4 -43.3,16.8 -10.9,11.3 -18.2,25.6 -21.1,41.1 h 126.3 c -0.2,-14.8 -5.7,-29.1 -15.3,-40.3 -10.1,-12 -25.4,-17.6 -46.5,-17.6"
   id="path12" />
		<path
   class="st0"
   d="M 1726.6,253.4 1528,138.7 c -5.4,-3 -12,-3 -17.4,0 L 1312,253.4 c -5.4,3.1 -8.7,8.8 -8.7,15 v 229.4 c 0,6.2 3.3,12 8.7,15.1 l 198.6,114.7 c 5.4,3.1 12,3.1 17.4,0 l 198.6,-114.7 c 5.4,-3.1 8.7,-8.9 8.7,-15.1 V 268.5 c 0,-6.2 -3.3,-12 -8.7,-15.1 m -225.6,165 -84.4,84.4 c -4.4,4.7 -11.8,5 -16.5,0.6 -0.2,-0.2 -0.4,-0.4 -0.6,-0.6 -4.7,-4.7 -4.7,-12.3 0,-17 0,0 0,0 0,0 l 84.8,-84.5 c 2.3,-2.2 5.3,-3.5 8.5,-3.4 6.5,-0.2 11.8,4.9 12,11.4 0,0.2 0,0.4 0,0.6 -0.2,3.2 -1.5,6.3 -3.8,8.5 m 0,-53.3 c -4.8,4.6 -12.3,4.6 -17,0 l -84.4,-85 c -4.7,-4.7 -4.7,-12.3 0,-17 4.7,-4.7 12.3,-4.7 17,0 l 84.7,84.6 c 4.8,4.6 5,12.1 0.4,16.9 -0.1,0.1 -0.3,0.3 -0.4,0.4 m 36,-17.1 85.3,-84.8 c 2.3,-2.2 5.3,-3.5 8.5,-3.5 6.6,0 12,5.3 12.1,11.9 0,3.2 -1.3,6.3 -3.5,8.6 l -84.6,84.9 c -4.6,4.8 -12.1,5 -16.9,0.4 -0.1,-0.1 -0.3,-0.3 -0.4,-0.4 -4.7,-4.7 -4.7,-12.3 -0.1,-17 0,0 0,0 0.1,-0.1 m 101.6,155.3 c -4.7,4.7 -12.3,4.7 -17,0 0,0 0,0 0,0 l -84.7,-84.9 c -4.7,-4.7 -4.7,-12.4 0.1,-17.1 4.7,-4.7 12.4,-4.7 17.1,0.1 l 84.5,84.7 c 4.7,4.4 5,11.8 0.6,16.5 -0.1,0.3 -0.3,0.5 -0.6,0.7"
   id="path14" />
		<path
   class="st0"
   d="m 3206.6,255.6 c 0.3,11.8 -9.1,21.7 -20.9,22 -11.8,0.3 -21.7,-9.1 -22,-20.9 -0.3,-11.8 9.1,-21.7 20.9,-22 0.2,0 0.4,0 0.5,0 11.6,-0.3 21.2,8.9 21.5,20.5 0,0.1 0,0.3 0,0.4 z m -37.6,0 c -0.3,9 6.8,16.4 15.8,16.7 0.1,0 0.2,0 0.4,0 9.2,-1.1 15.7,-9.4 14.6,-18.6 -0.9,-7.7 -7,-13.7 -14.6,-14.6 -9.1,0.1 -16.3,7.5 -16.2,16.5 0,0 0,0 0,0 z m 12.9,11 h -4.9 v -20.9 c 2.7,-0.4 5.4,-0.6 8.1,-0.5 2.5,-0.2 5,0.3 7.3,1.5 1.3,1.2 2.1,2.9 2,4.6 -0.2,2.4 -2,4.4 -4.3,4.8 v 0.3 c 2.2,0.8 3.6,2.8 3.8,5.1 0.2,1.8 0.7,3.6 1.5,5.2 h -5.2 c -0.8,-1.6 -1.4,-3.3 -1.7,-5.1 -0.4,-2.3 -1.6,-3.3 -4.3,-3.3 h -2.3 z m 0,-12 h 2.3 c 2.7,0 4.9,-0.9 4.9,-3.1 0,-2.2 -1.4,-3.2 -4.4,-3.2 -0.9,-0.1 -1.8,-0.1 -2.7,0 v 6.3 z"
   id="path16" />
	</g>
</g>
</svg>
